<?xml version="1.0" encoding="UTF-8" standalone="no"?>
<!-- Created with Inkscape (http://www.inkscape.org/) -->

<svg
   xmlns:dc="http://purl.org/dc/elements/1.1/"
   xmlns:cc="http://creativecommons.org/ns#"
   xmlns:rdf="http://www.w3.org/1999/02/22-rdf-syntax-ns#"
   xmlns:svg="http://www.w3.org/2000/svg"
   xmlns="http://www.w3.org/2000/svg"
   version="1.2"
   width="470"
   height="470"
   id="svg2">
  <defs
     id="defs4" />
  <metadata
     id="metadata7">
    <rdf:RDF>
      <cc:Work
         rdf:about="">
        <dc:format>image/svg+xml</dc:format>
        <dc:type
           rdf:resource="http://purl.org/dc/dcmitype/StillImage" />
        <dc:title></dc:title>
      </cc:Work>
    </rdf:RDF>
  </metadata>
  <g
     transform="translate(0,-582.37172)"
     id="layer1">
    <path
       d="m 269.09671,601.07781 53.12291,190.79765 -145.12564,90.92078 z"
       id="path3059"
       style="fill:#467082;fill-opacity:1" />
    <path
       d="M 310.78103,725.18462 274.49556,605.69381 397.91207,687.02904 z"
       id="path3061"
       style="fill:#467082;fill-opacity:1" />
    <path
       d="m 271.10946,832.01553 58.81704,-36.42448 -17.49294,-64.46312 91.36287,-40.77867 -88.02698,271.86207 z"
       id="path3063"
       style="fill:#467082;fill-opacity:1" />
    <path
       d="m 176.52339,888.24842 89.45024,-53.98032 47.35461,133.92924 z"
       id="path3065"
       style="fill:#467082;fill-opacity:1" />
    <path
       d="m 151.25606,921.58272 -31.88849,-115.99791 76.20779,2.82603 -26.23371,80.41605 138.86906,80.63384 z"
       id="path3839"
       style="fill:#ff6b6b;fill-opacity:1" />
    <path
       d="m 35.072958,882.56985 77.696352,-75.91401 14.06975,51.56284 -91.383292,24.60118 z"
       id="path3841"
       style="fill:#ff6b6b;fill-opacity:1" />
    <path
       d="m 319.17141,972.16478 34.24329,-108.08302 3.13214,170.72304 z"
       id="path3843"
       style="fill:#ff6b6b;fill-opacity:0.92237441" />
    <path
       d="m 180.28594,877.85072 c 0,-0.75749 51.47943,-158.653 78.97967,-242.24313 l 10.64572,-32.35887 5.71548,5.10054 5.71551,5.10054 12.66536,57.2425 c 26.87577,121.46808 26.1056,117.46428 23.21083,120.66297 -2.98521,3.29862 -30.73367,21.2315 -90.5934,58.54742 -51.14142,31.881 -46.33917,28.98469 -46.33917,27.94803 z"
       id="path3851"
       style="fill:#5c697a;fill-opacity:0" />
    <path
       d="m 179.79754,878.57754 c 0,-0.4792 11.31486,-35.49509 25.14414,-77.81311 13.82928,-42.31801 33.94691,-103.92759 44.70583,-136.91017 10.75892,-32.98259 19.76002,-60.17645 20.00246,-60.4308 0.57868,-0.6071 11.52738,8.75164 11.96495,10.22741 1.43163,4.82839 38.56304,173.90362 38.56304,175.59411 0,1.89242 -21.43542,16.11932 -69.50875,46.13362 -55.4223,34.60261 -70.87167,44.01957 -70.87167,43.19894 z"
       id="path3853"
       style="fill:#5c697a;fill-opacity:0" />
    <path
       d="m 179.79754,878.57754 c 0,-0.4792 11.31486,-35.49509 25.14414,-77.81311 13.82928,-42.31801 33.94691,-103.92759 44.70583,-136.91017 10.75892,-32.98259 19.76002,-60.17645 20.00246,-60.4308 0.57868,-0.6071 11.52738,8.75164 11.96495,10.22741 1.43163,4.82839 38.56304,173.90362 38.56304,175.59411 0,1.89242 -21.43542,16.11932 -69.50875,46.13362 -55.4223,34.60261 -70.87167,44.01957 -70.87167,43.19894 z"
       id="path3855"
       style="fill:#5c697a;fill-opacity:0" />
    <path
       d="m 183.49174,800.33756 c 0.19616,-1.2298 2.99966,-38.57477 6.23002,-82.98882 3.23036,-44.41405 6.07617,-81.29819 6.32402,-81.96475 0.38567,-1.03723 3.93159,0.80681 24.59969,12.79301 13.282,7.70271 24.30764,14.16348 24.50143,14.35727 0.19379,0.19378 -4.95173,16.09354 -11.43448,35.33279 -6.48274,19.23925 -16.75355,50.58259 -22.82404,69.65186 l -11.03722,34.67139 -8.35803,0.19163 -8.35804,0.19163 0.35665,-2.23599 0,0 z"
       id="path3857"
       style="fill:#5c697a;fill-opacity:0" />
    <path
       d="m 183.49174,800.33756 c 0.19616,-1.2298 2.99966,-38.57477 6.23002,-82.98882 3.23036,-44.41405 6.07617,-81.29819 6.32402,-81.96475 0.38567,-1.03723 3.93159,0.80681 24.59969,12.79301 13.282,7.70271 24.30764,14.16348 24.50143,14.35727 0.19379,0.19378 -4.95173,16.09354 -11.43448,35.33279 -6.48274,19.23925 -16.75355,50.58259 -22.82404,69.65186 l -11.03722,34.67139 -8.35803,0.19163 -8.35804,0.19163 0.35665,-2.23599 0,0 z"
       id="path3859"
       style="fill:#5c697a;fill-opacity:0" />
    <path
       d="m 290.2547,896.20724 c -19.4456,-55.62445 -22.62768,-65.2605 -21.80668,-66.0356 0.52872,-0.49916 13.22755,-8.64877 28.21963,-18.11026 14.99209,-9.46148 27.67236,-17.58799 28.17838,-18.05891 0.76751,-0.71427 -0.1862,-5.95037 -5.75261,-31.58267 -3.66995,-16.89954 -6.53722,-30.84211 -6.37171,-30.9835 0.92522,-0.79032 64.80775,-33.96596 65.00492,-33.75854 0.13049,0.13718 -14.26885,59.01636 -31.99838,130.84261 -17.7295,71.82626 -32.34125,131.09308 -32.47055,131.70407 -0.12933,0.61098 -10.48061,-28.19675 -23.003,-64.0172 z"
       id="path3861"
       style="fill:#5c697a;fill-opacity:0" />
    <path
       d="m 290.2547,896.20724 c -19.4456,-55.62445 -22.62768,-65.2605 -21.80668,-66.0356 0.52872,-0.49916 13.22755,-8.64877 28.21963,-18.11026 14.99209,-9.46148 27.67236,-17.58799 28.17838,-18.05891 0.76751,-0.71427 -0.1862,-5.95037 -5.75261,-31.58267 -3.66995,-16.89954 -6.53722,-30.84211 -6.37171,-30.9835 0.92522,-0.79032 64.80775,-33.96596 65.00492,-33.75854 0.13049,0.13718 -14.26885,59.01636 -31.99838,130.84261 -17.7295,71.82626 -32.34125,131.09308 -32.47055,131.70407 -0.12933,0.61098 -10.48061,-28.19675 -23.003,-64.0172 z"
       id="path3863"
       style="fill:#5c697a;fill-opacity:0" />
    <path
       d="m 183.49174,800.33756 c 0.19616,-1.2298 2.99966,-38.57477 6.23002,-82.98882 3.23036,-44.41405 6.07617,-81.29819 6.32402,-81.96475 0.38567,-1.03723 3.93159,0.80681 24.59969,12.79301 13.282,7.70271 24.30764,14.16348 24.50143,14.35727 0.19379,0.19378 -4.95173,16.09354 -11.43448,35.33279 -6.48274,19.23925 -16.75355,50.58259 -22.82404,69.65186 l -11.03722,34.67139 -8.35803,0.19163 -8.35804,0.19163 0.35665,-2.23599 0,0 z"
       id="path3865"
       style="fill:#5c697a;fill-opacity:0" />
    <path
       d="m 183.49174,800.33756 c 0.19616,-1.2298 2.99966,-38.57477 6.23002,-82.98882 3.23036,-44.41405 6.07617,-81.29819 6.32402,-81.96475 0.38567,-1.03723 3.93159,0.80681 24.59969,12.79301 13.282,7.70271 24.30764,14.16348 24.50143,14.35727 0.19379,0.19378 -4.95173,16.09354 -11.43448,35.33279 -6.48274,19.23925 -16.75355,50.58259 -22.82404,69.65186 l -11.03722,34.67139 -8.35803,0.19163 -8.35804,0.19163 0.35665,-2.23599 0,0 z"
       id="path3867"
       style="fill:#5c697a;fill-opacity:0" />
    <path
       d="m 183.49174,800.33756 c 0.19616,-1.2298 2.99966,-38.57477 6.23002,-82.98882 3.23036,-44.41405 6.07617,-81.29819 6.32402,-81.96475 0.38567,-1.03723 3.93159,0.80681 24.59969,12.79301 13.282,7.70271 24.30764,14.16348 24.50143,14.35727 0.19379,0.19378 -4.95173,16.09354 -11.43448,35.33279 -6.48274,19.23925 -16.75355,50.58259 -22.82404,69.65186 l -11.03722,34.67139 -8.35803,0.19163 -8.35804,0.19163 0.35665,-2.23599 0,0 z"
       id="path3869"
       style="fill:#5c6900;fill-opacity:0" />
    <path
       d="m 183.49174,800.33756 c 0.19616,-1.2298 2.99966,-38.57477 6.23002,-82.98882 3.23036,-44.41405 6.07617,-81.29819 6.32402,-81.96475 0.38567,-1.03723 3.93159,0.80681 24.59969,12.79301 13.282,7.70271 24.30764,14.16348 24.50143,14.35727 0.19379,0.19378 -4.95173,16.09354 -11.43448,35.33279 -6.48274,19.23925 -16.75355,50.58259 -22.82404,69.65186 l -11.03722,34.67139 -8.35803,0.19163 -8.35804,0.19163 0.35665,-2.23599 0,0 z"
       id="path3871"
       style="fill:#5c6900;fill-opacity:0" />
    <path
       d="m 183.49174,800.33756 c 0.19616,-1.2298 2.99966,-38.57477 6.23002,-82.98882 3.23036,-44.41405 6.07617,-81.29819 6.32402,-81.96475 0.38567,-1.03723 3.93159,0.80681 24.59969,12.79301 13.282,7.70271 24.30764,14.16348 24.50143,14.35727 0.19379,0.19378 -4.95173,16.09354 -11.43448,35.33279 -6.48274,19.23925 -16.75355,50.58259 -22.82404,69.65186 l -11.03722,34.67139 -8.35803,0.19163 -8.35804,0.19163 0.35665,-2.23599 0,0 z"
       id="path3873"
       style="fill:#5c6900;fill-opacity:0" />
    <path
       d="m 179.60269,801.39821 12.55404,-164.95357 49.10112,27.15028 -45.29574,139.65604 -16.71607,0.38326 0.35665,-2.23599 z"
       id="path3875"
       style="fill:#4e5a68;fill-opacity:1" />
  </g>
</svg>
